<mxfile host="app.diagrams.net" agent="Mozilla/5.0 (Macintosh; Intel Mac OS X 10_15_7) AppleWebKit/605.1.15 (KHTML, like Gecko) Version/17.6 Safari/605.1.15" version="25.0.3">
  <diagram id="C5RBs43oDa-KdzZeNtuy" name="Page-1">
    <mxGraphModel dx="708" dy="477" grid="1" gridSize="10" guides="1" tooltips="1" connect="1" arrows="1" fold="1" page="1" pageScale="1" pageWidth="827" pageHeight="1169" math="0" shadow="0">
      <root>
        <mxCell id="WIyWlLk6GJQsqaUBKTNV-0" />
        <mxCell id="WIyWlLk6GJQsqaUBKTNV-1" parent="WIyWlLk6GJQsqaUBKTNV-0" />
        <mxCell id="70Q1UKESnuUyt1hb4IzO-3" value="PROCESS" style="rounded=0;whiteSpace=wrap;html=1;fillColor=#dae8fc;strokeColor=#6c8ebf;" vertex="1" parent="WIyWlLk6GJQsqaUBKTNV-1">
          <mxGeometry x="500" y="230" width="120" height="60" as="geometry" />
        </mxCell>
        <mxCell id="70Q1UKESnuUyt1hb4IzO-4" value="DECISION" style="rhombus;whiteSpace=wrap;html=1;fillColor=#e1d5e7;strokeColor=#9673a6;" vertex="1" parent="WIyWlLk6GJQsqaUBKTNV-1">
          <mxGeometry x="520" y="130" width="80" height="80" as="geometry" />
        </mxCell>
        <mxCell id="70Q1UKESnuUyt1hb4IzO-5" value="Hangman Game" style="text;html=1;align=center;verticalAlign=middle;resizable=0;points=[];autosize=1;strokeColor=none;fillColor=none;" vertex="1" parent="WIyWlLk6GJQsqaUBKTNV-1">
          <mxGeometry x="165" y="40" width="110" height="30" as="geometry" />
        </mxCell>
        <mxCell id="70Q1UKESnuUyt1hb4IzO-6" value="START" style="rounded=1;whiteSpace=wrap;html=1;fontSize=12;glass=0;strokeWidth=1;shadow=0;shape=ellipse;perimeter=ellipsePerimeter;fillColor=#d5e8d4;strokeColor=#82b366;" vertex="1" parent="WIyWlLk6GJQsqaUBKTNV-1">
          <mxGeometry x="500" y="90" width="120" height="40" as="geometry" />
        </mxCell>
        <mxCell id="70Q1UKESnuUyt1hb4IzO-38" style="edgeStyle=orthogonalEdgeStyle;rounded=0;orthogonalLoop=1;jettySize=auto;html=1;exitX=0;exitY=0.5;exitDx=0;exitDy=0;entryX=0;entryY=0.25;entryDx=0;entryDy=0;" edge="1" parent="WIyWlLk6GJQsqaUBKTNV-1" source="70Q1UKESnuUyt1hb4IzO-16">
          <mxGeometry relative="1" as="geometry">
            <mxPoint x="183.63636363636363" y="415.4545454545455" as="targetPoint" />
            <Array as="points">
              <mxPoint x="70" y="730" />
              <mxPoint x="70" y="415" />
            </Array>
          </mxGeometry>
        </mxCell>
        <mxCell id="70Q1UKESnuUyt1hb4IzO-43" value="" style="edgeStyle=orthogonalEdgeStyle;rounded=0;orthogonalLoop=1;jettySize=auto;html=1;" edge="1" parent="WIyWlLk6GJQsqaUBKTNV-1" source="70Q1UKESnuUyt1hb4IzO-39" target="70Q1UKESnuUyt1hb4IzO-42">
          <mxGeometry relative="1" as="geometry" />
        </mxCell>
        <mxCell id="70Q1UKESnuUyt1hb4IzO-39" value="START" style="rounded=1;whiteSpace=wrap;html=1;fontSize=12;glass=0;strokeWidth=1;shadow=0;shape=ellipse;perimeter=ellipsePerimeter;fillColor=#d5e8d4;strokeColor=#82b366;" vertex="1" parent="WIyWlLk6GJQsqaUBKTNV-1">
          <mxGeometry x="155" y="80" width="120" height="40" as="geometry" />
        </mxCell>
        <mxCell id="70Q1UKESnuUyt1hb4IzO-45" value="" style="edgeStyle=orthogonalEdgeStyle;rounded=0;orthogonalLoop=1;jettySize=auto;html=1;" edge="1" parent="WIyWlLk6GJQsqaUBKTNV-1" source="70Q1UKESnuUyt1hb4IzO-42" target="70Q1UKESnuUyt1hb4IzO-44">
          <mxGeometry relative="1" as="geometry" />
        </mxCell>
        <mxCell id="70Q1UKESnuUyt1hb4IzO-42" value="Generate a random word" style="rounded=0;whiteSpace=wrap;html=1;fillColor=#dae8fc;strokeColor=#6c8ebf;" vertex="1" parent="WIyWlLk6GJQsqaUBKTNV-1">
          <mxGeometry x="155" y="150" width="120" height="60" as="geometry" />
        </mxCell>
        <mxCell id="70Q1UKESnuUyt1hb4IzO-47" value="" style="edgeStyle=orthogonalEdgeStyle;rounded=0;orthogonalLoop=1;jettySize=auto;html=1;" edge="1" parent="WIyWlLk6GJQsqaUBKTNV-1" source="70Q1UKESnuUyt1hb4IzO-44" target="70Q1UKESnuUyt1hb4IzO-46">
          <mxGeometry relative="1" as="geometry" />
        </mxCell>
        <mxCell id="70Q1UKESnuUyt1hb4IzO-44" value="Generate as many blank spaces as there are in a word" style="rounded=0;whiteSpace=wrap;html=1;fillColor=#dae8fc;strokeColor=#6c8ebf;" vertex="1" parent="WIyWlLk6GJQsqaUBKTNV-1">
          <mxGeometry x="155" y="230" width="120" height="60" as="geometry" />
        </mxCell>
        <mxCell id="70Q1UKESnuUyt1hb4IzO-49" value="" style="edgeStyle=orthogonalEdgeStyle;rounded=0;orthogonalLoop=1;jettySize=auto;html=1;" edge="1" parent="WIyWlLk6GJQsqaUBKTNV-1" source="70Q1UKESnuUyt1hb4IzO-46" target="70Q1UKESnuUyt1hb4IzO-48">
          <mxGeometry relative="1" as="geometry" />
        </mxCell>
        <mxCell id="70Q1UKESnuUyt1hb4IzO-46" value="Ask user to input a letter" style="rounded=0;whiteSpace=wrap;html=1;fillColor=#dae8fc;strokeColor=#6c8ebf;" vertex="1" parent="WIyWlLk6GJQsqaUBKTNV-1">
          <mxGeometry x="155" y="310" width="120" height="60" as="geometry" />
        </mxCell>
        <mxCell id="70Q1UKESnuUyt1hb4IzO-54" style="edgeStyle=orthogonalEdgeStyle;rounded=0;orthogonalLoop=1;jettySize=auto;html=1;exitX=0;exitY=0.5;exitDx=0;exitDy=0;entryX=0.5;entryY=0;entryDx=0;entryDy=0;" edge="1" parent="WIyWlLk6GJQsqaUBKTNV-1" source="70Q1UKESnuUyt1hb4IzO-48" target="70Q1UKESnuUyt1hb4IzO-53">
          <mxGeometry relative="1" as="geometry" />
        </mxCell>
        <mxCell id="70Q1UKESnuUyt1hb4IzO-55" style="edgeStyle=orthogonalEdgeStyle;rounded=0;orthogonalLoop=1;jettySize=auto;html=1;exitX=1;exitY=0.5;exitDx=0;exitDy=0;entryX=0.5;entryY=0;entryDx=0;entryDy=0;" edge="1" parent="WIyWlLk6GJQsqaUBKTNV-1" source="70Q1UKESnuUyt1hb4IzO-48" target="70Q1UKESnuUyt1hb4IzO-52">
          <mxGeometry relative="1" as="geometry" />
        </mxCell>
        <mxCell id="70Q1UKESnuUyt1hb4IzO-48" value="Is the guessed letter in the word?" style="rhombus;whiteSpace=wrap;html=1;fillColor=#e1d5e7;strokeColor=#9673a6;" vertex="1" parent="WIyWlLk6GJQsqaUBKTNV-1">
          <mxGeometry x="175" y="400" width="80" height="80" as="geometry" />
        </mxCell>
        <mxCell id="70Q1UKESnuUyt1hb4IzO-50" value="Yes" style="text;html=1;align=center;verticalAlign=middle;resizable=0;points=[];autosize=1;strokeColor=none;fillColor=none;" vertex="1" parent="WIyWlLk6GJQsqaUBKTNV-1">
          <mxGeometry x="75" y="460" width="40" height="30" as="geometry" />
        </mxCell>
        <mxCell id="70Q1UKESnuUyt1hb4IzO-51" value="No" style="text;html=1;align=center;verticalAlign=middle;resizable=0;points=[];autosize=1;strokeColor=none;fillColor=none;" vertex="1" parent="WIyWlLk6GJQsqaUBKTNV-1">
          <mxGeometry x="315" y="470" width="40" height="30" as="geometry" />
        </mxCell>
        <mxCell id="70Q1UKESnuUyt1hb4IzO-59" value="" style="edgeStyle=orthogonalEdgeStyle;rounded=0;orthogonalLoop=1;jettySize=auto;html=1;" edge="1" parent="WIyWlLk6GJQsqaUBKTNV-1" source="70Q1UKESnuUyt1hb4IzO-52" target="70Q1UKESnuUyt1hb4IzO-57">
          <mxGeometry relative="1" as="geometry" />
        </mxCell>
        <mxCell id="70Q1UKESnuUyt1hb4IzO-52" value="Lose a life" style="rounded=0;whiteSpace=wrap;html=1;fillColor=#dae8fc;strokeColor=#6c8ebf;" vertex="1" parent="WIyWlLk6GJQsqaUBKTNV-1">
          <mxGeometry x="255" y="520" width="120" height="60" as="geometry" />
        </mxCell>
        <mxCell id="70Q1UKESnuUyt1hb4IzO-60" value="" style="edgeStyle=orthogonalEdgeStyle;rounded=0;orthogonalLoop=1;jettySize=auto;html=1;" edge="1" parent="WIyWlLk6GJQsqaUBKTNV-1" source="70Q1UKESnuUyt1hb4IzO-53" target="70Q1UKESnuUyt1hb4IzO-58">
          <mxGeometry relative="1" as="geometry" />
        </mxCell>
        <mxCell id="70Q1UKESnuUyt1hb4IzO-53" value="Replace the blank with the letter" style="rounded=0;whiteSpace=wrap;html=1;fillColor=#dae8fc;strokeColor=#6c8ebf;" vertex="1" parent="WIyWlLk6GJQsqaUBKTNV-1">
          <mxGeometry x="55" y="525" width="120" height="60" as="geometry" />
        </mxCell>
        <mxCell id="70Q1UKESnuUyt1hb4IzO-62" style="edgeStyle=orthogonalEdgeStyle;rounded=0;orthogonalLoop=1;jettySize=auto;html=1;exitX=0.5;exitY=1;exitDx=0;exitDy=0;entryX=1;entryY=0.5;entryDx=0;entryDy=0;" edge="1" parent="WIyWlLk6GJQsqaUBKTNV-1" source="70Q1UKESnuUyt1hb4IzO-57" target="70Q1UKESnuUyt1hb4IzO-61">
          <mxGeometry relative="1" as="geometry" />
        </mxCell>
        <mxCell id="70Q1UKESnuUyt1hb4IzO-68" style="edgeStyle=orthogonalEdgeStyle;rounded=0;orthogonalLoop=1;jettySize=auto;html=1;exitX=1;exitY=0.5;exitDx=0;exitDy=0;entryX=1;entryY=0.5;entryDx=0;entryDy=0;" edge="1" parent="WIyWlLk6GJQsqaUBKTNV-1" source="70Q1UKESnuUyt1hb4IzO-57" target="70Q1UKESnuUyt1hb4IzO-46">
          <mxGeometry relative="1" as="geometry">
            <Array as="points">
              <mxPoint x="410" y="640" />
              <mxPoint x="410" y="340" />
            </Array>
          </mxGeometry>
        </mxCell>
        <mxCell id="70Q1UKESnuUyt1hb4IzO-57" value="Have they ran out of lives?" style="rhombus;whiteSpace=wrap;html=1;fillColor=#e1d5e7;strokeColor=#9673a6;" vertex="1" parent="WIyWlLk6GJQsqaUBKTNV-1">
          <mxGeometry x="275" y="600" width="80" height="80" as="geometry" />
        </mxCell>
        <mxCell id="70Q1UKESnuUyt1hb4IzO-63" style="edgeStyle=orthogonalEdgeStyle;rounded=0;orthogonalLoop=1;jettySize=auto;html=1;exitX=0.5;exitY=1;exitDx=0;exitDy=0;entryX=0;entryY=0.5;entryDx=0;entryDy=0;" edge="1" parent="WIyWlLk6GJQsqaUBKTNV-1" source="70Q1UKESnuUyt1hb4IzO-58" target="70Q1UKESnuUyt1hb4IzO-61">
          <mxGeometry relative="1" as="geometry" />
        </mxCell>
        <mxCell id="70Q1UKESnuUyt1hb4IzO-70" style="edgeStyle=orthogonalEdgeStyle;rounded=0;orthogonalLoop=1;jettySize=auto;html=1;exitX=0;exitY=0.5;exitDx=0;exitDy=0;entryX=0;entryY=0.5;entryDx=0;entryDy=0;" edge="1" parent="WIyWlLk6GJQsqaUBKTNV-1" source="70Q1UKESnuUyt1hb4IzO-58" target="70Q1UKESnuUyt1hb4IzO-46">
          <mxGeometry relative="1" as="geometry">
            <mxPoint x="30" y="479.9999999999999" as="targetPoint" />
            <Array as="points">
              <mxPoint x="20" y="640" />
              <mxPoint x="20" y="340" />
            </Array>
          </mxGeometry>
        </mxCell>
        <mxCell id="70Q1UKESnuUyt1hb4IzO-58" value="Are all blanks filled?" style="rhombus;whiteSpace=wrap;html=1;fillColor=#e1d5e7;strokeColor=#9673a6;" vertex="1" parent="WIyWlLk6GJQsqaUBKTNV-1">
          <mxGeometry x="75" y="600" width="80" height="80" as="geometry" />
        </mxCell>
        <mxCell id="70Q1UKESnuUyt1hb4IzO-61" value="STOP" style="rounded=1;whiteSpace=wrap;html=1;fontSize=12;glass=0;strokeWidth=1;shadow=0;shape=ellipse;perimeter=ellipsePerimeter;fillColor=#d5e8d4;strokeColor=#82b366;" vertex="1" parent="WIyWlLk6GJQsqaUBKTNV-1">
          <mxGeometry x="155" y="710" width="120" height="40" as="geometry" />
        </mxCell>
        <mxCell id="70Q1UKESnuUyt1hb4IzO-65" value="Yes" style="text;html=1;align=center;verticalAlign=middle;resizable=0;points=[];autosize=1;strokeColor=none;fillColor=none;" vertex="1" parent="WIyWlLk6GJQsqaUBKTNV-1">
          <mxGeometry x="115" y="680" width="40" height="30" as="geometry" />
        </mxCell>
        <mxCell id="70Q1UKESnuUyt1hb4IzO-66" value="Yes" style="text;html=1;align=center;verticalAlign=middle;resizable=0;points=[];autosize=1;strokeColor=none;fillColor=none;" vertex="1" parent="WIyWlLk6GJQsqaUBKTNV-1">
          <mxGeometry x="270" y="680" width="40" height="30" as="geometry" />
        </mxCell>
        <mxCell id="70Q1UKESnuUyt1hb4IzO-67" value="No" style="text;html=1;align=center;verticalAlign=middle;resizable=0;points=[];autosize=1;strokeColor=none;fillColor=none;" vertex="1" parent="WIyWlLk6GJQsqaUBKTNV-1">
          <mxGeometry x="355" y="640" width="40" height="30" as="geometry" />
        </mxCell>
        <mxCell id="70Q1UKESnuUyt1hb4IzO-69" value="No" style="text;html=1;align=center;verticalAlign=middle;resizable=0;points=[];autosize=1;strokeColor=none;fillColor=none;" vertex="1" parent="WIyWlLk6GJQsqaUBKTNV-1">
          <mxGeometry x="30" y="650" width="40" height="30" as="geometry" />
        </mxCell>
      </root>
    </mxGraphModel>
  </diagram>
</mxfile>
